<?xml version="1.0" standalone="no"?>
<!DOCTYPE svg PUBLIC "-//W3C//DTD SVG 20010904//EN"
 "http://www.w3.org/TR/2001/REC-SVG-20010904/DTD/svg10.dtd">
<svg version="1.0" xmlns="http://www.w3.org/2000/svg"
 width="1098.000000pt" height="160.000000pt" viewBox="0 0 1098.000000 160.000000"
 preserveAspectRatio="xMidYMid meet">
<defs>
	<linearGradient id="linear" x1="0%" y1="100%" x2="50%" y2="0%" >
		<stop  offset="0%" stop-color="#FF96C8"/>
		<stop  offset="100%" stop-color="#CC2222"/>
	</linearGradient>
</defs>

<g transform="translate(0.000000,160.000000) scale(0.100000,-0.100000)"
fill="#EEEEEE" stroke="none">	

<path fill="url(#linear)" stroke="#000000" stroke-opacity="0.25" stroke-width="16" d="M377 1530 c-126 -40 -233 -147 -278 -277 -29 -85 -26 -228 6 -330 54
-173 229 -375 652 -755 72 -65 135 -118 140 -118 17 0 234 194 451 405 161
155 298 348 341 478 79 238 -14 476 -226 578 -60 29 -80 34 -171 37 -149 6
-234 -22 -346 -112 -49 -40 -56 -43 -68 -29 -32 40 -135 104 -195 123 -85 26
-224 26 -306 0z"/>
<path d="M7016 1478 c-137 -81 -76 -277 87 -278 126 0 204 98 162 205 -24 63
-64 89 -145 93 -53 2 -72 -1 -104 -20z"/>
<path d="M2312 788 c-62 -359 -113 -659 -112 -666 0 -10 35 -12 157 -10 l157
3 45 263 45 262 247 0 c227 0 248 1 253 18 8 25 36 194 36 215 0 16 -18 17
-245 17 -135 0 -245 3 -245 8 0 4 11 70 25 146 14 77 25 141 25 143 0 2 124 3
275 3 151 0 275 3 275 8 0 4 9 59 20 122 11 63 20 116 20 118 0 1 -195 2 -433
2 l-433 0 -112 -652z"/>
<path d="M7480 1273 c-6 -43 -16 -99 -22 -125 l-10 -48 -58 0 c-67 0 -62 6
-80 -110 -6 -41 -14 -83 -16 -92 -5 -16 2 -18 55 -18 37 0 61 -4 61 -11 0 -6
-18 -119 -41 -252 -42 -253 -44 -302 -13 -376 19 -47 59 -88 109 -114 50 -25
175 -35 250 -18 l52 12 7 82 c4 45 9 97 13 115 l5 32 -48 -1 c-65 -3 -93 7
-100 35 -4 19 49 374 71 474 5 20 11 22 83 22 l78 0 17 103 c10 56 17 105 17
110 0 4 -34 7 -75 7 -53 0 -75 4 -75 13 0 6 9 61 20 121 11 60 20 111 20 113
0 2 -69 3 -154 3 l-153 0 -13 -77z"/>
<path d="M3554 1105 c-139 -30 -258 -124 -289 -228 -27 -92 -36 -87 138 -87
l153 0 12 34 c17 45 43 67 90 73 34 5 45 1 66 -20 27 -27 32 -62 20 -126 l-6
-31 -102 0 c-304 -1 -478 -123 -480 -340 -1 -92 25 -151 90 -209 56 -49 119
-71 205 -71 78 0 140 19 191 61 l37 30 7 -28 c3 -16 7 -34 10 -41 2 -9 41 -12
149 -12 l145 0 -6 87 c-5 74 1 129 36 343 44 275 45 318 7 399 -67 144 -261
212 -473 166z m156 -567 c0 -6 -5 -40 -11 -75 -10 -55 -16 -67 -52 -98 -64
-55 -141 -59 -173 -9 -32 49 15 141 90 175 46 21 146 26 146 7z"/>
<path d="M5471 1110 c-189 -40 -341 -207 -385 -422 -54 -262 25 -465 214 -555
46 -22 72 -27 165 -31 94 -3 119 -1 175 18 85 28 148 70 210 137 153 167 196
476 93 666 -37 67 -120 141 -191 167 -65 25 -208 35 -281 20z m167 -256 c38
-25 55 -79 54 -172 -2 -159 -42 -272 -112 -320 -29 -20 -44 -23 -89 -19 -64 5
-93 31 -112 100 -20 74 4 256 44 332 47 91 143 126 215 79z"/>
<path d="M6592 1094 c-29 -14 -66 -42 -82 -62 -31 -38 -35 -32 -21 31 l9 37
-143 0 -143 0 -6 -27 c-8 -39 -166 -948 -166 -956 0 -4 69 -7 153 -7 l152 0
55 313 c54 312 54 312 88 344 42 41 118 64 202 61 l64 -3 19 139 c22 160 24
156 -69 156 -45 0 -73 -7 -112 -26z"/>
<path d="M8305 1106 c-175 -42 -311 -187 -364 -386 -71 -270 3 -477 207 -577
l76 -38 130 0 c101 0 143 4 184 18 64 23 164 88 186 123 17 25 16 26 -46 109
-34 47 -65 85 -69 85 -3 0 -14 -9 -25 -21 -30 -33 -112 -70 -169 -76 -91 -10
-158 29 -184 106 -21 65 -38 61 279 61 l290 0 7 28 c5 15 8 86 8 157 -1 144
-16 202 -75 283 -83 115 -266 169 -435 128z m198 -267 c22 -24 27 -39 27 -79
l0 -50 -145 0 -145 0 15 36 c51 124 176 171 248 93z"/>
<path d="M9220 1102 c-171 -45 -273 -159 -274 -306 0 -84 22 -133 83 -189 54
-49 101 -71 221 -106 99 -29 150 -59 150 -88 0 -29 -31 -71 -64 -87 -75 -35
-179 -8 -192 51 -15 68 -2 63 -156 63 l-141 0 7 -47 c15 -112 86 -201 204
-256 56 -26 80 -31 170 -35 63 -3 126 0 161 8 124 27 236 102 277 188 11 21
20 67 22 110 4 63 1 79 -22 126 -41 84 -128 139 -281 177 -151 38 -190 86
-122 154 42 42 95 54 143 32 27 -13 36 -25 45 -62 l11 -45 151 0 150 0 -6 49
c-8 65 -46 140 -93 181 -103 90 -285 124 -444 82z"/>
<path d="M4180 1097 c0 -9 151 -945 155 -964 5 -23 8 -23 158 -23 l153 0 229
486 c127 267 232 490 233 495 2 5 -64 9 -161 9 l-165 0 -118 -295 c-65 -162
-119 -294 -120 -292 -1 1 -12 124 -24 272 -11 149 -23 280 -26 293 -4 22 -7
22 -159 22 -85 0 -155 -2 -155 -3z"/>
<path d="M6831 618 c-46 -266 -86 -489 -89 -496 -3 -9 31 -12 151 -12 l155 0
6 28 c7 34 166 950 166 957 0 3 -69 5 -153 5 l-153 0 -83 -482z"/>
</g>
</svg>
