<?xml version="1.0" standalone="no"?>
<!DOCTYPE svg PUBLIC "-//W3C//DTD SVG 20010904//EN"
 "http://www.w3.org/TR/2001/REC-SVG-20010904/DTD/svg10.dtd">
<svg version="1.0" xmlns="http://www.w3.org/2000/svg"
 width="1098.000000pt" height="160.000000pt" viewBox="0 0 1098.000000 160.000000"
 preserveAspectRatio="xMidYMid meet">
<defs>
	<linearGradient id="linear" x1="0%" y1="100%" x2="50%" y2="0%" >
		<stop  offset="0%" stop-color="#66FF00"/>
		<stop  offset="100%" stop-color="#33CC00"/>
	</linearGradient>
</defs>
<g transform="translate(0.000000,160.000000) scale(0.100000,-0.100000)"
fill="#EEEEEE" stroke="none">
<g fill="url(#linear)" stroke="#000000" stroke-opacity="0.25" stroke-width="16">
	<path d="M845 1531 c-144 -35 -266 -110 -378 -231 -110 -119 -187 -305 -187
-450 l0 -49 -125 -3 -125 -3 167 -168 168 -167 170 170 170 170 -128 0 c-145
0 -134 -9 -116 99 30 177 158 344 321 420 166 78 330 78 497 0 155 -72 287
-235 320 -397 14 -68 14 -176 0 -244 -33 -162 -165 -325 -320 -397 -202 -94
-404 -75 -586 55 l-76 55 -61 -60 -60 -60 20 -22 c33 -37 139 -108 206 -138
182 -82 434 -82 616 0 209 94 383 305 427 517 19 94 19 250 0 344 -55 264
-292 501 -562 562 -95 21 -266 20 -358 -3z"/>
	<path d="M940 928 l1 -213 178 -107 c98 -60 181 -108 184 -108 5 0 67 96 67
105 0 2 -65 43 -145 91 l-145 87 0 178 0 179 -70 0 -70 0 0 -212z"/>
</g>

<path d="M2317 818 c-65 -376 -118 -686 -117 -690 0 -7 330 -12 330 -5 0 1 18
106 40 232 22 127 40 233 40 238 0 4 40 7 89 7 l89 0 19 -62 c11 -35 44 -143
74 -240 l54 -178 178 0 c146 0 177 2 177 14 0 8 -41 134 -91 281 -50 147 -89
268 -87 269 2 2 28 16 57 32 130 69 212 190 230 338 22 185 -41 316 -188 391
-96 48 -151 55 -476 55 l-301 0 -117 -682z m678 408 c90 -38 102 -184 23 -280
-51 -62 -93 -76 -237 -76 l-123 0 5 28 c3 16 18 99 33 185 l27 157 119 0 c81
0 130 -5 153 -14z"/>
<path d="M7810 1323 c-6 -43 -16 -99 -22 -125 l-10 -48 -62 0 -63 0 -16 -100
c-24 -140 -27 -130 43 -130 33 0 60 -2 60 -5 0 -2 -18 -113 -40 -246 -56 -338
-53 -399 22 -484 59 -67 125 -88 253 -82 55 2 107 8 116 11 18 8 24 37 35 169
l7 77 -61 0 c-68 0 -92 15 -92 58 0 15 18 132 40 260 22 128 40 234 40 237 0
3 37 5 83 5 l83 0 17 103 c10 56 17 108 17 115 0 8 -23 12 -80 12 -78 0 -80 1
-75 23 12 56 35 191 35 208 0 18 -10 19 -159 19 l-158 0 -13 -77z"/>
<path d="M3905 1159 c-146 -30 -285 -143 -354 -290 -47 -98 -71 -207 -71 -316
0 -170 69 -302 199 -385 138 -87 365 -92 524 -12 53 28 137 99 137 118 0 15
-119 176 -130 176 -5 0 -22 -11 -38 -25 -45 -38 -118 -67 -181 -72 -77 -6
-137 24 -168 87 -13 24 -23 55 -23 67 l0 23 304 0 304 0 11 75 c22 149 7 270
-46 368 -37 67 -121 141 -189 166 -66 25 -206 35 -279 20z m178 -269 c32 -26
50 -78 41 -124 l-6 -36 -150 0 -149 0 6 23 c14 46 57 108 93 132 48 32 127 35
165 5z"/>
<path d="M4923 1156 c-247 -57 -408 -298 -406 -611 1 -278 159 -446 417 -445
138 1 235 35 325 116 60 54 112 152 119 224 l5 50 -152 0 c-137 0 -151 -2
-151 -17 0 -51 -78 -123 -133 -123 -87 0 -124 69 -113 215 13 184 47 286 110
324 48 30 119 28 151 -3 22 -22 45 -81 45 -118 0 -16 14 -18 151 -18 l151 0
-7 68 c-23 213 -153 336 -370 348 -49 2 -104 -2 -142 -10z"/>
<path d="M5924 1156 c-198 -45 -344 -200 -400 -421 -24 -98 -25 -263 -1 -335
39 -119 141 -227 254 -270 80 -31 243 -39 333 -16 106 27 191 77 241 140 l21
26 -67 85 c-36 47 -68 85 -71 85 -2 0 -25 -15 -51 -34 -142 -101 -287 -85
-344 39 -37 80 -57 75 286 75 l305 0 7 28 c5 15 8 88 8 162 0 156 -13 206 -75
292 -69 97 -167 146 -304 153 -49 3 -105 -1 -142 -9z m175 -260 c33 -17 51
-54 51 -104 0 -63 -1 -63 -163 -60 l-147 3 24 50 c23 49 61 91 101 113 28 16
101 15 134 -2z"/>
<path d="M7127 1159 c-54 -13 -112 -44 -159 -87 -31 -28 -39 -32 -35 -17 3 11
9 37 13 58 l6 37 -150 0 -150 0 -12 -67 c-6 -38 -46 -268 -89 -513 l-77 -445
155 -3 c85 -1 158 1 161 5 4 5 35 167 69 362 59 334 64 355 88 375 47 38 67
45 119 46 68 0 94 -21 101 -80 4 -36 -69 -515 -103 -683 l-6 -27 161 0 c158 0
161 0 166 23 3 12 28 159 56 327 58 352 62 451 20 547 -53 120 -186 177 -334
142z"/>
</g>
</svg>
