<?xml version="1.0" standalone="no"?>
<!DOCTYPE svg PUBLIC "-//W3C//DTD SVG 20010904//EN"
 "http://www.w3.org/TR/2001/REC-SVG-20010904/DTD/svg10.dtd">
<svg version="1.0" xmlns="http://www.w3.org/2000/svg"
 width="1098.000000pt" height="160.000000pt" viewBox="0 0 1098.000000 160.000000"
 preserveAspectRatio="xMidYMid meet">
<g transform="translate(0.000000,160.000000) scale(0.100000,-0.100000)"
fill="#EEEEEE" stroke="none">

<g  fill="url(#linear)" stroke="#000000" stroke-opacity="0.25" stroke-width="16">
	<linearGradient id="linear" x1="0%" y1="100%" x2="50%" y2="0%" >
		<stop  offset="0%" stop-color="#88EEFF"/>
		<stop  offset="100%" stop-color="#2288CC"/>
	</linearGradient>
<path d="M80 1225 l0 -175 175 0 175 0 0 175 0 175 -175 0 -175 0 0 -175z"/>
<path d="M510 1225 l0 -175 175 0 175 0 0 175 0 175 -175 0 -175 0 0 -175z"/>
<path d="M940 1225 l0 -175 175 0 175 0 0 175 0 175 -175 0 -175 0 0 -175z"/>
<path d="M1370 1225 l0 -175 175 0 175 0 0 175 0 175 -175 0 -175 0 0 -175z"/>
<path d="M80 795 l0 -175 175 0 175 0 0 175 0 175 -175 0 -175 0 0 -175z"/>
<path d="M510 795 l0 -175 175 0 175 0 0 175 0 175 -175 0 -175 0 0 -175z"/>
<path d="M940 795 l0 -175 175 0 175 0 0 175 0 175 -175 0 -175 0 0 -175z"/>
<path d="M1370 795 l0 -175 175 0 175 0 0 175 0 175 -175 0 -175 0 0 -175z"/>
<path d="M80 365 l0 -175 175 0 175 0 0 175 0 175 -175 0 -175 0 0 -175z"/>
<path d="M510 365 l0 -175 175 0 175 0 0 175 0 175 -175 0 -175 0 0 -175z"/>
<path d="M940 365 l0 -175 175 0 175 0 0 175 0 175 -175 0 -175 0 0 -175z"/>
<path d="M1370 365 l0 -175 175 0 175 0 0 175 0 175 -175 0 -175 0 0 -175z"/>
</g>

<path  d="M3765 1488 c-5 -17 -235 -1354 -235 -1368 0 -6 53 -10 150 -10 147 0
150 0 155 23 7 28 235 1347 235 1358 0 15 -300 11 -305 -3z"/>
<path d="M4265 1488 c-4 -15 -235 -1360 -235 -1370 0 -5 67 -8 149 -8 134 0
150 2 155 18 6 19 236 1349 236 1363 0 15 -300 11 -305 -3z"/>
<path d="M5573 1435 c-310 -67 -518 -419 -501 -844 8 -186 59 -303 175 -397
81 -66 146 -86 293 -91 205 -8 392 44 499 137 l35 30 37 237 c21 131 40 255
43 276 l6 37 -264 0 -264 0 -6 -27 c-3 -16 -10 -57 -16 -93 -6 -36 -13 -73
-16 -82 -5 -16 4 -18 100 -18 74 0 106 -4 106 -12 0 -6 -8 -52 -17 -101 l-17
-90 -45 -20 c-65 -28 -160 -34 -216 -12 -44 16 -83 56 -99 100 -43 116 -9 421
63 562 32 65 86 124 134 150 49 26 167 24 204 -3 41 -31 71 -80 79 -130 l6
-44 152 0 153 0 -8 60 c-21 151 -101 279 -210 335 -96 50 -278 68 -406 40z"/>
<path d="M2857 1368 c-102 -184 -657 -1239 -657 -1248 0 -6 62 -10 171 -10
l170 0 59 125 59 125 205 0 c114 0 206 -3 206 -7 0 -5 7 -55 15 -113 8 -58 15
-111 15 -117 0 -10 40 -13 165 -13 91 0 165 1 165 3 0 2 -54 296 -120 653 -66
357 -120 652 -120 657 0 4 -67 7 -150 7 l-149 0 -34 -62z m152 -538 c13 -102
25 -193 28 -202 4 -17 -7 -18 -127 -18 -72 0 -130 4 -128 9 24 63 195 408 199
403 3 -4 16 -90 28 -192z"/>

<path d="M6583 1095 c-155 -42 -256 -139 -279 -267 l-6 -38 154 0 154 0 13 35
c17 47 49 67 102 63 61 -4 84 -38 75 -111 l-7 -54 -122 -6 c-134 -7 -212 -24
-287 -62 -118 -60 -172 -145 -174 -273 -1 -95 24 -153 90 -211 56 -49 119 -71
205 -71 78 0 140 19 191 60 l36 30 7 -40 7 -40 150 0 150 0 -9 43 c-13 68 -7
148 31 380 48 295 47 348 -12 435 -63 95 -173 142 -326 141 -50 0 -115 -7
-143 -14z m173 -577 c-4 -18 -9 -52 -13 -76 -9 -66 -81 -122 -158 -122 -120 0
-76 181 53 220 15 5 49 9 76 9 l49 1 -7 -32z"/>
<path d="M7760 1101 c-39 -12 -92 -41 -133 -74 l-38 -29 5 26 c4 14 8 37 11
51 l5 25 -143 0 -143 0 -84 -482 c-45 -266 -85 -489 -88 -495 -3 -10 31 -13
152 -13 118 0 156 3 156 13 0 6 27 160 59 342 l59 330 37 32 c66 57 146 56
174 -2 13 -27 10 -59 -38 -350 -29 -176 -55 -330 -58 -342 l-5 -23 153 0 154
0 58 338 c54 311 61 339 85 365 55 59 133 76 172 37 33 -33 32 -48 -31 -421
-27 -163 -49 -301 -49 -308 0 -8 45 -11 150 -11 147 0 150 0 155 22 3 13 28
160 56 328 63 383 61 463 -14 561 -50 66 -94 84 -207 84 -84 0 -101 -3 -148
-28 -29 -15 -71 -44 -93 -64 -22 -20 -41 -34 -43 -32 -1 2 -12 21 -25 41 -34
57 -106 88 -200 87 -42 0 -87 -4 -101 -8z"/>
<path d="M9125 1096 c-230 -76 -363 -279 -366 -561 -3 -186 80 -323 239 -398
55 -25 80 -31 164 -35 162 -8 291 34 377 122 l43 44 -67 87 -68 86 -26 -24
c-76 -73 -205 -98 -280 -56 -27 15 -48 37 -61 64 -39 80 -56 75 269 75 l289 0
12 102 c29 233 -45 400 -209 476 -48 23 -72 27 -166 29 -71 2 -124 -2 -150
-11z m194 -241 c35 -17 53 -60 49 -111 l-3 -39 -143 -3 -144 -3 8 23 c12 40
58 102 93 125 39 27 98 30 140 8z"/>
<path d="M10049 1095 c-108 -29 -199 -97 -240 -178 -30 -58 -37 -163 -15 -221
34 -88 133 -155 297 -201 129 -36 164 -74 123 -133 -33 -48 -128 -68 -189 -40
-28 13 -55 55 -55 86 0 17 -11 20 -107 25 -58 4 -123 7 -143 7 l-37 0 8 -53
c17 -130 106 -224 252 -269 56 -17 86 -19 175 -15 128 5 190 23 274 80 87 58
119 113 126 212 10 166 -79 257 -310 315 -129 33 -162 63 -133 123 20 43 62
67 117 67 52 0 84 -27 94 -78 l7 -32 150 0 150 0 -7 46 c-17 128 -100 215
-245 258 -66 19 -225 20 -292 1z"/>
</g>
</svg>
