<?xml version="1.0" standalone="no"?>
<!DOCTYPE svg PUBLIC "-//W3C//DTD SVG 20010904//EN"
 "http://www.w3.org/TR/2001/REC-SVG-20010904/DTD/svg10.dtd">
<svg version="1.0" xmlns="http://www.w3.org/2000/svg"
 width="1098.000000pt" height="160.000000pt" viewBox="0 0 1098.000000 160.000000"
 preserveAspectRatio="xMidYMid meet">
<metadata>
Created by potrace 1.16, written by Peter Selinger 2001-2019
</metadata>
<g transform="translate(0.000000,160.000000) scale(0.100000,-0.100000)"
fill="#EEEEEE" stroke="none">

<g  fill="url(#linear)" stroke="#000000" stroke-opacity="0.25" stroke-width="16">
	<linearGradient id="linear" x1="0%" y1="100%" x2="50%" y2="0%" >
		<stop  offset="0%" stop-color="#EE88FF"/>
		<stop  offset="100%" stop-color="#8822CC"/>
	</linearGradient>
<path d="M741 1528 c-66 -45 -90 -100 -91 -205 l0 -53 -152 0 c-173 0 -205 -9
-245 -69 -22 -32 -23 -44 -23 -192 l0 -159 78 0 c89 0 130 -17 175 -73 52 -63
49 -171 -5 -233 -46 -53 -76 -64 -168 -64 l-81 0 3 -170 3 -170 38 -37 37 -38
170 -3 170 -3 0 81 c0 92 11 122 64 168 62 54 170 57 233 5 56 -45 73 -86 73
-175 l0 -78 159 0 c148 0 160 1 192 23 60 40 69 72 69 245 l0 152 53 0 c105 1
160 25 205 91 20 29 23 44 20 100 -6 118 -68 169 -202 169 l-76 0 0 158 c0
173 -8 206 -63 246 -26 19 -45 21 -198 24 l-169 3 0 76 c0 133 -51 195 -169
201 -56 3 -71 0 -100 -20z"/>
</g>
<path d="M2771 1464 c-212 -57 -385 -259 -449 -524 -76 -313 -42 -564 95 -711
86 -92 181 -129 329 -129 120 0 181 13 280 60 132 63 229 175 268 309 31 105
36 101 -118 101 l-133 0 -21 -58 c-41 -110 -114 -170 -223 -179 -82 -8 -125 3
-170 44 -69 62 -86 188 -54 411 35 247 102 380 220 437 56 27 155 32 210 11
77 -30 125 -111 125 -211 l0 -25 135 0 135 0 0 41 c0 23 -7 68 -16 102 -42
165 -140 270 -295 318 -74 23 -238 25 -318 3z"/>
<path d="M5626 1248 c-25 -150 -17 -138 -97 -138 -38 0 -69 -1 -69 -2 0 -2 -7
-41 -15 -88 -8 -47 -15 -91 -15 -97 0 -9 20 -13 68 -13 l69 0 -43 -262 c-24
-145 -44 -281 -44 -303 0 -100 45 -181 123 -220 43 -21 64 -25 136 -24 48 1
97 4 111 8 27 8 34 29 44 149 l6 73 -47 -6 c-61 -7 -97 10 -101 48 -2 16 16
143 39 283 l42 254 84 0 c45 0 83 1 83 3 0 1 7 40 15 87 8 47 15 91 15 98 0 8
-23 12 -80 12 -44 0 -80 1 -80 3 0 2 9 52 20 112 11 60 20 112 20 117 0 4 -60
8 -133 8 l-134 0 -17 -102z"/>
<path d="M4779 1107 c-160 -54 -243 -158 -243 -302 0 -60 4 -78 27 -118 49
-83 127 -127 334 -186 72 -21 113 -54 113 -90 0 -30 -38 -78 -76 -96 -52 -24
-140 -24 -182 0 -33 20 -62 68 -62 104 0 20 -5 21 -125 21 l-125 0 0 -35 c0
-102 82 -214 198 -268 59 -28 80 -32 171 -35 159 -6 267 25 359 104 124 105
130 303 14 405 -49 43 -118 73 -240 106 -115 30 -152 54 -152 101 0 62 68 113
152 114 63 0 98 -23 118 -80 l14 -41 129 -3 129 -3 -5 48 c-11 116 -101 218
-226 257 -91 29 -233 27 -322 -3z"/>
<path d="M6385 1113 c-157 -56 -278 -190 -329 -362 -80 -272 -3 -517 192 -613
57 -28 78 -33 165 -36 121 -5 202 14 285 67 160 104 252 294 252 519 0 195
-82 342 -228 410 -49 23 -72 27 -172 29 -91 3 -126 0 -165 -14z m223 -223 c84
-52 103 -239 41 -406 -25 -65 -80 -131 -126 -151 -44 -18 -119 -16 -153 4 -15
9 -39 35 -52 57 -21 37 -23 53 -22 156 1 128 19 195 73 274 55 79 166 110 239
66z"/>
<path d="M7569 1113 c-26 -8 -69 -32 -97 -54 l-51 -38 5 32 c3 18 7 38 10 45
2 9 -26 12 -121 12 -109 0 -124 -2 -129 -17 -7 -23 -166 -945 -166 -961 0 -10
32 -12 132 -10 l132 3 62 348 c68 384 65 377 149 417 85 41 174 13 188 -60 4
-18 -16 -166 -48 -360 -30 -182 -55 -335 -55 -340 0 -6 53 -10 133 -10 l132 0
59 342 c58 328 61 343 90 376 82 93 219 95 247 3 10 -33 4 -82 -45 -374 -31
-185 -56 -339 -56 -342 0 -3 60 -5 133 -5 l134 0 53 318 c60 356 65 441 31
532 -40 108 -124 160 -255 160 -94 0 -153 -21 -234 -83 -46 -34 -67 -45 -70
-36 -9 29 -89 95 -129 107 -55 16 -178 14 -234 -5z"/>
<path d="M3575 1098 c-16 -54 -105 -638 -105 -694 0 -99 21 -162 75 -222 61
-67 115 -86 234 -80 92 5 139 22 201 74 l32 27 -7 -44 -7 -44 126 3 c69 2 126
7 126 12 0 11 160 929 167 958 5 22 5 22 -130 22 l-136 0 -10 -52 c-6 -29 -33
-186 -61 -348 l-51 -295 -41 -37 c-47 -44 -104 -62 -168 -55 -50 6 -76 30 -85
80 -4 19 16 162 49 357 31 179 56 331 56 338 0 17 -259 17 -265 0z"/>
</g>
</svg>
