<svg xmlns="http://www.w3.org/2000/svg" xmlns:xlink="http://www.w3.org/1999/xlink" width="512" height="512" viewBox="0 0 512 512">
  <defs>
    <filter id="Path_1" x="117.203" y="145.797" width="277.594" height="226.406" filterUnits="userSpaceOnUse">
      <feOffset dy="3" input="SourceAlpha"/>
      <feGaussianBlur stdDeviation="3" result="blur"/>
      <feFlood flood-opacity="0.4"/>
      <feComposite operator="in" in2="blur"/>
      <feComposite in="SourceGraphic"/>
    </filter>
    <clipPath id="clip-folder">
      <rect width="512" height="512"/>
    </clipPath>
  </defs>
  <g id="folder" clip-path="url(#clip-folder)">
    <g transform="matrix(1, 0, 0, 1, 0, 0)" filter="url(#Path_1)">
      <path id="Path_1-2" data-name="Path 1" d="M104.2-78V-207.8H-104.2V-78Zm0-156a24.133,24.133,0,0,1,17.977,7.922A25.6,25.6,0,0,1,129.8-207.8V-78a25.6,25.6,0,0,1-7.617,18.281A24.133,24.133,0,0,1,104.2-51.8H-104.2a24.133,24.133,0,0,1-17.977-7.922A25.6,25.6,0,0,1-129.8-78V-234a25.6,25.6,0,0,1,7.617-18.281A24.133,24.133,0,0,1-104.2-260.2h78L0-234Z" transform="translate(256 412)" fill="#fff" opacity="0.7"/>
    </g>
  </g>
</svg>
