<svg xmlns="http://www.w3.org/2000/svg" xmlns:xlink="http://www.w3.org/1999/xlink" width="512" height="512" viewBox="0 0 512 512">
  <defs>
    <filter id="Path_3" x="142.797" y="120.203" width="226.406" height="277.594" filterUnits="userSpaceOnUse">
      <feOffset dy="3" input="SourceAlpha"/>
      <feGaussianBlur stdDeviation="3" result="blur"/>
      <feFlood flood-opacity="0.4"/>
      <feComposite operator="in" in2="blur"/>
      <feComposite in="SourceGraphic"/>
    </filter>
    <clipPath id="clip-rom">
      <rect width="512" height="512"/>
    </clipPath>
  </defs>
  <g id="rom" clip-path="url(#clip-rom)">
    <g transform="matrix(1, 0, 0, 1, 0, 0)" filter="url(#Path_3)">
      <path id="Path_3-2" data-name="Path 3" d="M12.8-195H84.7L12.8-266.3Zm39,65.2V-156H-51.8v26.2Zm0,51.8v-26.2H-51.8V-78ZM26.2-285.8l78,78v156A24.133,24.133,0,0,1,96.281-33.82,25.6,25.6,0,0,1,78-26.2H-78A25.6,25.6,0,0,1-96.281-33.82,24.133,24.133,0,0,1-104.2-51.8l.609-208.406a24.586,24.586,0,0,1,7.617-17.977A24.586,24.586,0,0,1-78-285.8Z" transform="translate(256 412)" fill="#fff" opacity="0.7"/>
    </g>
  </g>
</svg>
