<svg version="1.0" xmlns="http://www.w3.org/2000/svg"
 width="480.000000pt" height="480.000000pt" viewBox="0 0 480.000000 480.000000"
 preserveAspectRatio="xMidYMid meet">
 <defs>
    <filter id="shadow" >
      <feOffset result="offOut" in="SourceAlpha" dx="0" dy="-15" />
      <feGaussianBlur result="blurOut" in="offOut" stdDeviation="30" />
      <feBlend in="SourceGraphic" in2="blurOut" mode="normal" />
    </filter>
  </defs>
  
<g transform="translate(0.000000,480.000000) scale(0.10000,-0.10000)"
fill="#FFFFFF" filter="url(#shadow)">
<path d="M1101 4616 c-53 -29 -50 100 -51 -2203 0 -1640 3 -2148 12 -2168 26
-57 -22 -55 1101 -55 704 0 1052 3 1092 11 118 22 252 100 334 196 54 63 117
192 130 267 16 90 15 3876 -1 3911 -26 58 44 55 -1330 55 -1015 -1 -1268 -4
-1287 -14z m2377 -347 c20 -7 34 -21 41 -41 15 -43 15 -1312 0 -1393 -13 -71
-56 -160 -96 -196 -41 -39 -120 -76 -188 -88 -78 -15 -1874 -15 -1927 -1 -27
8 -39 18 -47 42 -15 43 -15 1592 0 1636 6 19 21 35 37 41 39 14 2139 14 2180
0z m-1780 -2331 c8 -8 12 -46 12 -105 l0 -93 93 0 c59 0 97 -4 105 -12 16 -16
16 -200 0 -216 -8 -8 -46 -12 -105 -12 l-93 0 0 -93 c0 -59 -4 -97 -12 -105
-16 -16 -200 -16 -216 0 -8 8 -12 46 -12 105 l0 93 -93 0 c-59 0 -97 4 -105
12 -16 16 -16 200 0 216 8 8 46 12 105 12 l93 0 0 93 c0 59 4 97 12 105 8 8
47 12 108 12 61 0 100 -4 108 -12z m1775 -51 c95 -72 81 -224 -26 -278 -107
-55 -237 23 -237 142 0 60 10 86 46 123 40 39 60 46 126 43 42 -2 65 -10 91
-30z m-463 -199 c49 -34 72 -71 77 -125 12 -124 -106 -213 -222 -168 -108 41
-141 184 -63 264 41 42 60 50 124 50 37 1 60 -5 84 -21z m491 -803 c95 -172
109 -210 72 -203 -21 4 -216 356 -208 376 13 34 43 -5 136 -173z m-1338 154
c19 -31 -3 -51 -127 -110 -131 -62 -145 -66 -164 -47 -30 30 -13 47 116 113
129 66 157 73 175 44z m460 0 c19 -31 -3 -51 -127 -110 -131 -62 -145 -66
-164 -47 -30 30 -13 47 116 113 129 66 157 73 175 44z m748 -234 c95 -172 109
-210 72 -203 -21 4 -216 356 -208 376 13 34 43 -5 136 -173z m-130 -80 c95
-172 109 -210 72 -203 -21 4 -216 356 -208 376 13 34 43 -5 136 -173z m-130
-80 c95 -172 109 -210 72 -203 -21 4 -216 356 -208 376 13 34 43 -5 136 -173z
m-130 -80 c95 -172 109 -210 72 -203 -21 4 -216 356 -208 376 13 34 43 -5 136
-173z m-130 -80 c95 -172 109 -210 72 -203 -21 4 -216 356 -208 376 13 34 43
-5 136 -173z"/>
<path d="M1670 3410 l0 -660 720 0 720 0 0 660 0 660 -720 0 -720 0 0 -660z"/>
</g>
</svg>
