<svg version="1.0" xmlns="http://www.w3.org/2000/svg"
 width="480.000000pt" height="320.000000pt" viewBox="0 0 480.000000 320.000000"
 preserveAspectRatio="xMidYMid meet">
 <defs>
    <filter id="shadow" >
      <feOffset result="offOut" in="SourceAlpha" dx="0" dy="-15" />
      <feGaussianBlur result="blurOut" in="offOut" stdDeviation="30" />
      <feBlend in="SourceGraphic" in2="blurOut" mode="normal" />
    </filter>
  </defs>
  
<g transform="translate(0.000000,320.000000) scale(0.10000,-0.10000)"
fill="#FFFFFF" filter="url(#shadow)">
<path d="M1070 2894 c-90 -18 -130 -35 -145 -64 -9 -17 -20 -30 -25 -30 -19 0
-60 -52 -70 -91 -6 -22 -18 -77 -25 -122 -14 -76 -18 -84 -52 -111 -99 -78
-198 -205 -237 -305 -32 -81 -71 -309 -151 -866 -26 -176 -50 -338 -56 -360
-5 -22 -12 -90 -15 -151 -9 -140 4 -192 65 -287 97 -149 219 -217 387 -217
167 0 304 80 398 234 24 39 106 172 182 296 76 124 162 266 192 315 59 99 93
140 134 161 40 21 1456 21 1496 0 41 -21 75 -62 134 -161 30 -49 116 -191 192
-315 76 -124 158 -257 182 -296 94 -154 231 -234 398 -234 168 0 290 68 387
217 61 95 74 147 65 287 -3 61 -10 129 -15 151 -6 22 -30 184 -56 360 -80 557
-119 785 -151 866 -39 100 -138 227 -237 305 -34 27 -38 35 -52 111 -7 45 -19
100 -25 122 -10 39 -51 91 -70 91 -5 0 -16 13 -25 30 -23 45 -100 65 -250 64
-157 0 -245 -26 -245 -71 0 -7 -16 -28 -36 -45 -43 -38 -69 -87 -79 -148 -4
-25 -11 -64 -17 -87 l-10 -42 -392 -5 c-475 -7 -417 -7 -892 0 l-392 5 -10 42
c-6 23 -13 62 -17 87 -10 61 -36 110 -79 148 -20 17 -36 38 -36 45 0 21 -30
44 -75 56 -43 13 -234 23 -275 15z m2650 -494 c45 -23 80 -80 80 -130 0 -76
-74 -150 -150 -150 -50 0 -107 35 -130 80 -25 50 -25 90 0 140 37 73 124 99
200 60z m-2454 -101 c10 -8 14 -38 14 -101 l0 -90 -38 -39 c-65 -64 -119 -64
-184 0 l-38 39 0 90 c0 97 5 107 55 115 47 8 176 -2 191 -14z m2104 -219 c45
-23 80 -80 80 -130 0 -76 -74 -150 -150 -150 -50 0 -107 35 -130 80 -25 50
-25 90 0 140 37 73 124 99 200 60z m710 0 c45 -23 80 -80 80 -130 0 -76 -74
-150 -150 -150 -50 0 -107 35 -130 80 -25 50 -25 90 0 140 37 73 124 99 200
60z m-3049 -38 c64 -65 64 -119 0 -184 l-39 -38 -90 0 c-115 0 -117 2 -117
130 0 128 2 130 117 130 l90 0 39 -38z m470 22 c10 -12 14 -47 14 -114 0 -128
-2 -130 -117 -130 l-90 0 -39 38 c-21 21 -41 50 -44 65 -11 41 3 77 44 119
l39 38 90 0 c71 0 92 -3 103 -16z m-302 -199 c16 -8 40 -28 55 -45 24 -29 26
-39 26 -120 0 -113 -2 -115 -130 -115 -128 0 -130 2 -130 115 0 96 12 123 74
161 37 23 67 24 105 4z m1615 -108 c84 -24 109 -44 90 -74 -11 -18 -148 -62
-194 -63 -39 0 -50 18 -50 80 0 88 19 95 154 57z m916 3 c45 -23 80 -80 80
-130 0 -76 -74 -150 -150 -150 -50 0 -107 35 -130 80 -25 50 -25 90 0 140 37
73 124 99 200 60z m-1610 -60 l0 -70 -100 0 -100 0 0 70 0 70 100 0 100 0 0
-70z"/>
</g>
</svg>
